<?xml version="1.0" encoding="UTF-8" standalone="no"?>
<svg
   version="1.0"
   width="300.000000pt"
   height="256.000000pt"
   viewBox="0 0 300.000000 256.000000"
   preserveAspectRatio="xMidYMid meet"
   id="svg88"
   sodipodi:docname="logo.svg"
   inkscape:version="1.1.2 (0a00cf5339, 2022-02-04)"
   xmlns:inkscape="http://www.inkscape.org/namespaces/inkscape"
   xmlns:sodipodi="http://sodipodi.sourceforge.net/DTD/sodipodi-0.dtd"
   xmlns="http://www.w3.org/2000/svg"
   xmlns:svg="http://www.w3.org/2000/svg">
  <defs
     id="defs92" />
  <sodipodi:namedview
     id="namedview90"
     pagecolor="#ffffff"
     bordercolor="#666666"
     borderopacity="1.0"
     inkscape:pageshadow="2"
     inkscape:pageopacity="0.0"
     inkscape:pagecheckerboard="0"
     inkscape:document-units="pt"
     showgrid="false"
     inkscape:zoom="0.95495661"
     inkscape:cx="164.40538"
     inkscape:cy="111.52339"
     inkscape:window-width="1920"
     inkscape:window-height="1080"
     inkscape:window-x="0"
     inkscape:window-y="0"
     inkscape:window-maximized="1"
     inkscape:current-layer="svg88" />
  <metadata
     id="metadata2">
Created by potrace 1.10, written by Peter Selinger 2001-2011
</metadata>
  <path
     d="m 166.6,17.6 c -2,1.9 -2,2.6 -0.1,7.1 0.8,1.9 1.5,3.9 1.5,4.4 0,0.5 -11.9,0.9 -26.5,0.9 -25.1,0 -26.5,-0.1 -27.5,-1.9 -1.7,-3.2 -1.2,-4.1 2,-3.5 4.7,1 8,-0.3 8,-3 0,-1.4 -0.4,-2.6 -1,-2.8 -0.5,-0.2 -6.6,-0.2 -13.5,0 -11.3,0.3 -12.5,0.5 -12.5,2.1 0,2.8 2.6,4.4 6.1,3.9 2.8,-0.4 3.3,-0.1 5.1,3.7 l 2.1,4.3 -3.8,6.3 c -2.1,3.5 -3.9,6.5 -4,6.6 0,0.1 -2.3,-0.5 -5,-1.3 -7.1,-2.2 -17,-1.4 -23.8,2 -9.6,4.6 -18,15.7 -18.9,24.6 -0.3,3.3 -0.1,3.5 2.7,3.5 2.7,0 3,-0.4 3.7,-4.3 1.2,-7.3 7.2,-14.7 15,-18.8 C 80.5,49.2 90,48.5 95.3,50 l 4.4,1.2 -5.1,8.9 C 91.2,66 88.9,69 87.7,69 85.3,69 81,73.4 81,75.8 c 0,1.1 0.8,3 1.8,4.3 2.3,2.7 7.9,3.1 9.7,0.6 1,-1.4 3.1,-1.7 11.9,-1.7 H 115 l -0.6,2.7 c -1.1,4.6 -4.4,10.6 -7.8,14.1 -6.7,7.2 -16.9,9.7 -26.9,6.8 C 72.2,100.4 63.8,92.5 62,85.9 61.3,83.5 60.6,80.9 60.4,80.2 60.2,79.6 58.7,79 57,79 c -3,0 -3.1,0.1 -2.5,3.2 1.1,5.7 5.7,14 9.9,18.3 5.6,5.6 12.4,8.6 21,9.2 12.8,0.9 23.7,-4.8 30.4,-16 1.8,-3 3.5,-7.2 3.9,-9.3 0.3,-2.2 1.2,-4.5 2.1,-5.1 1.3,-1.1 2.1,-0.6 4.7,2.4 2.6,3.1 3.8,3.7 7.2,3.7 4.5,0.1 9.4,3.3 7.1,4.7 -0.9,0.6 -0.9,1.1 0.1,2.3 1.8,2.2 4.4,2 6.7,-0.5 1.4,-1.6 1.6,-2.4 0.7,-3.7 -0.6,-0.9 -1.7,-1.6 -2.4,-1.5 -0.8,0.1 -2.2,-0.9 -3.2,-2.2 -1.4,-1.9 -1.5,-2.9 -0.7,-4.4 0.5,-1.1 1,-3.3 1,-4.9 0,-1.6 0.7,-3.6 1.6,-4.3 0.9,-0.8 7.6,-8 15,-16 l 13.3,-14.7 1.9,3.9 2,4 -4.4,4.1 c -4.9,4.5 -9,12.1 -10,18.5 -0.6,4.2 -0.6,4.3 2.3,4.3 2.8,0 3.1,-0.3 4.2,-5.5 0.9,-4.1 2.4,-6.7 5.8,-10.5 l 4.6,-5.2 4.9,9.9 c 2.6,5.4 4.6,10.4 4.3,11.1 -0.7,1.8 2,6.8 4,7.6 2.9,1.1 6.5,-0.5 8.1,-3.5 1.3,-2.6 1.3,-3.2 -0.1,-5.8 -1.5,-3 -4.7,-4.7 -6.4,-3.6 -0.6,0.3 -2,-1.8 -3.3,-4.7 -1.2,-2.9 -3.2,-7.2 -4.4,-9.6 -1.2,-2.4 -1.7,-4.5 -1.2,-4.8 2.2,-1.4 13,-1.6 17.4,-0.4 9.3,2.6 17.5,11.9 19.1,21.5 0.5,3.3 0.8,3.6 3.7,3.3 2.8,-0.3 3.1,-0.6 2.7,-3.3 -0.7,-6.5 -4.4,-13.9 -9.3,-18.8 -7,-7 -12.3,-9.1 -22.8,-9.2 -4.7,0 -9.7,0.4 -11.1,0.8 -2.5,0.8 -2.9,0.5 -6.6,-6.5 -2.2,-4 -4.4,-8.7 -5,-10.3 -0.6,-1.7 -1.4,-3.7 -1.7,-4.5 -1,-2.4 11.7,-1.5 14,1.1 1.6,1.8 1.6,2 -0.1,3.9 -1,1.1 -2.7,2 -3.7,2 -1.4,0 -1.9,0.6 -1.6,2.2 0.5,3.6 5.7,3.6 9.1,0.2 4.6,-4.6 3.1,-12.1 -3,-15.3 -3.4,-1.8 -17.8,-1.4 -19.7,0.5 z m 2.4,18.2 c 0,0.6 -23.6,26.5 -27.1,29.8 -2.7,2.5 -4,3.1 -6.4,2.7 -2.8,-0.4 -3.6,-1.7 -10.5,-16 -4.1,-8.6 -7.6,-15.8 -7.8,-16.2 -0.1,-0.3 11.5,-0.6 25.8,-0.6 14.3,0 26,0.1 26,0.3 z m -48.7,19.6 c 6.5,13.1 7.1,14.7 5.8,16.5 -2.7,4.1 -4.6,2.6 -6.9,-5.3 -1.7,-5.9 -3.1,-8.5 -7,-12.7 l -4.9,-5.3 2.5,-4.3 c 1.3,-2.4 2.6,-4.2 2.9,-3.9 0.2,0.2 3.7,7 7.6,15 z m -8.3,9.1 c 1.1,2.3 2,5.3 2,6.8 V 74 h -10 c -5.5,0 -10,-0.2 -10,-0.4 0,-1.1 2.9,-6.8 6.4,-12.4 l 3.8,-6.3 2.9,2.7 c 1.6,1.5 3.8,4.6 4.9,6.9 z m 24.9,10.3 c 0.7,1.4 0.6,2.5 -0.5,4 -1.9,2.7 -3.6,2.8 -5.9,0.2 -1.7,-1.9 -1.7,-2.1 0,-4 2.3,-2.5 5.1,-2.6 6.4,-0.2 z M 90,76 c 0,1.3 -0.7,2 -2,2 -1.9,0 -2.7,-2 -1.3,-3.3 C 88,73.3 90,74.1 90,76 Z m 106.5,0 c 0,2.2 -2.9,1.8 -3.3,-0.3 -0.3,-1.4 0.1,-1.8 1.5,-1.5 1,0.2 1.8,1 1.8,1.8 z"
     id="path6"
     style="fill:#000000;stroke:none;stroke-width:0.1"
     sodipodi:nodetypes="ccssccsccsscccccccscccccssccsccccccscccccccccccccccscccccccsccccccccccscccccscccccccscsccsccccssccccccscsscsscccscccccsscssccs" />
  <path
     d="m 85.2,57.7 c 0.3,5.1 0.6,5.8 2.6,6.1 2.1,0.3 2.2,0 2.2,-5.7 0,-5.9 -0.1,-6.1 -2.5,-6.1 -2.5,0 -2.6,0.2 -2.3,5.7 z"
     id="path10"
     style="fill:#000000;stroke:none;stroke-width:0.1" />
  <path
     d="m 193,54.9 c 0,5.7 1.2,9.1 3.1,9.1 1.7,0 1.9,-0.8 1.9,-6 0,-5.7 -0.1,-6 -2.5,-6 -2.1,0 -2.5,0.5 -2.5,2.9 z"
     id="path12"
     style="fill:#000000;stroke:none;stroke-width:0.1" />
  <path
     d="m 73,60.5 c -1.1,1.4 -0.8,2.1 2,5.1 3.1,3.1 3.6,3.3 4.9,1.9 1.4,-1.4 1.2,-1.9 -2,-5.1 C 74.7,59.2 74.2,59 73,60.5 Z"
     id="path14"
     style="fill:#000000;stroke:none;stroke-width:0.1" />
  <path
     d="m 204.6,61.9 c -2.6,2.7 -3.1,6.1 -0.8,6.1 1.6,0 7.4,-6.8 6.8,-7.9 -1.2,-1.8 -3.1,-1.2 -6,1.8 z"
     id="path16"
     style="fill:#000000;stroke:none;stroke-width:0.1" />
  <path
     d="m 238.2,73.3 c -0.9,1 -0.4,3.2 1.7,8.8 3.5,8.8 6.1,20.9 6.1,27.7 0,5.7 1.9,8.3 4.5,6.2 2.9,-2.4 -0.1,-21.2 -5.6,-35.8 -3.1,-8 -4.6,-9.5 -6.7,-6.9 z"
     id="path18"
     style="fill:#000000;stroke:none;stroke-width:0.1" />
  <path
     d="m 42.2,75.2 c -2.1,2.7 -6.4,18.7 -7.4,28.3 -1.2,10.9 -0.8,13.8 1.9,13.3 1.5,-0.3 2,-2.2 3,-10.8 1.5,-13 2.9,-19.2 5.5,-24.8 1.1,-2.3 1.7,-4.9 1.4,-5.7 -0.7,-1.8 -3,-1.9 -4.4,-0.3 z"
     id="path20"
     style="fill:#000000;stroke:none;stroke-width:0.1" />
  <path
     d="m 63.7,76 c -0.5,1.8 0,2 4.4,2.2 2.7,0.1 5.7,0.2 6.7,0.2 1,0.1 1.8,-0.8 2,-2.2 0.3,-2.1 0,-2.2 -6.1,-2.2 -5.6,0 -6.5,0.3 -7,2 z"
     id="path22"
     style="fill:#000000;stroke:none;stroke-width:0.1" />
  <path
     d="m 170.7,74.6 c -0.3,0.4 -0.2,1.5 0.4,2.6 0.9,1.6 2,1.8 7.2,1.6 5.4,-0.3 6.2,-0.5 6.2,-2.3 0,-1.8 -0.8,-2 -6.5,-2.3 -3.6,-0.2 -6.9,0 -7.3,0.4 z"
     id="path24"
     style="fill:#000000;stroke:none;stroke-width:0.1" />
  <path
     d="m 205.6,75.6 c -1.1,2.7 0.7,3.5 7,3.2 5,-0.3 5.9,-0.6 5.9,-2.2 0,-1.5 -1,-1.9 -6.1,-2.3 -5.1,-0.3 -6.3,-0.1 -6.8,1.3 z"
     id="path26"
     style="fill:#000000;stroke:none;stroke-width:0.1" />
  <path
     d="m 162.5,82.2 c 2.1,10.2 9.5,19.7 19.3,24.5 4.9,2.4 6.9,2.8 14.2,2.7 7.3,0 9.3,-0.4 14.4,-2.9 8.9,-4.4 16.2,-14.3 18,-24.3 0.5,-3.1 0.4,-3.2 -2.8,-3.2 -3.2,0 -3.3,0.2 -5,6.1 -1.3,4.9 -2.6,7 -6.6,10.9 -5.8,5.7 -10.3,7.4 -18.5,7.4 -12.5,-0.1 -24.1,-9.3 -26.5,-20.9 -0.5,-2.5 -1.1,-3.1 -3.9,-3.3 -3.2,-0.3 -3.3,-0.3 -2.6,3 z"
     id="path28"
     style="fill:#000000;stroke:none;stroke-width:0.1" />
  <path
     d="m 74,86.5 c -3.2,3.3 -3.3,3.6 -1.7,5.2 0.9,0.9 1.8,1.5 1.9,1.2 0.2,-0.2 1.9,-2.1 3.8,-4.2 2.9,-3.1 3.2,-3.9 2,-4.7 -2.2,-1.4 -2.3,-1.3 -6,2.5 z"
     id="path30"
     style="fill:#000000;stroke:none;stroke-width:0.1" />
  <path
     d="m 182.1,86.4 c -3.3,3.4 -3.8,5 -2,6.2 1.2,0.7 7.9,-5.3 7.9,-7.2 0,-2.6 -2.9,-2.1 -5.9,1 z"
     id="path32"
     style="fill:#000000;stroke:none;stroke-width:0.1" />
  <path
     d="m 203.8,84.2 c -1.5,1.2 -1.3,1.7 1.8,5.2 3.2,3.8 3.5,3.9 5.1,2.3 1.6,-1.6 1.5,-1.9 -1.8,-5.2 -2.9,-3 -3.7,-3.3 -5.1,-2.3 z"
     id="path34"
     style="fill:#000000;stroke:none;stroke-width:0.1" />
  <path
     d="m 96.1,85.3 c -0.8,1 -0.3,2.2 1.9,4.8 2.7,3.2 3,3.3 4.5,1.7 2,-1.9 1.5,-2.9 -2.4,-5.7 -2.3,-1.7 -3.1,-1.8 -4,-0.8 z"
     id="path36"
     style="fill:#000000;stroke:none;stroke-width:0.1" />
  <path
     d="m 85.2,93.2 c 0.3,5.7 0.5,6.3 2.6,6.6 2.1,0.3 2.2,0 2.2,-6.2 0,-6.4 -0.1,-6.6 -2.5,-6.6 -2.5,0 -2.6,0.1 -2.3,6.2 z"
     id="path38"
     style="fill:#000000;stroke:none;stroke-width:0.1" />
  <path
     d="m 194,87.4 c -0.3,0.2 -0.3,3.2 -0.2,6.5 0.3,5.3 0.6,6.1 2.3,6.1 1.8,0 2,-0.6 1.7,-6.2 -0.2,-4.7 -0.7,-6.4 -1.8,-6.6 -0.9,-0.1 -1.8,-0.1 -2,0.2 z"
     id="path40"
     style="fill:#000000;stroke:none;stroke-width:0.1" />
  <path
     d="m 34.2,160.7 c -1,1.7 -0.4,1.8 10.1,1.5 12.4,-0.3 14.6,-1 17.1,-5.3 2.2,-3.8 1.3,-8.4 -2,-10.6 -2.2,-1.4 -2.3,-1.7 -0.9,-3.3 4.4,-4.9 1.6,-13 -5.2,-14.9 C 51.2,127.5 46.1,127 42,127 h -7.5 c -0.97625,8.22636 2.427071,26.79593 -0.3,33.7 z M 52.7,137 c 0.5,2.6 -1,3.7 -5.8,4.2 l -4.6,0.5 0.3,-3.6 c 0.2,-2 0.3,-3.6 0.3,-3.6 0.1,-0.1 2.2,0.2 4.8,0.5 3.2,0.3 4.9,1 5,2 z m -0.6,12 c 2.3,1.3 2.5,4.6 0.3,5.4 -0.9,0.3 -3.5,0.6 -5.8,0.6 -4.2,0 -4.3,-0.1 -4.4,-3.5 -0.1,-3.4 -0.1,-3.5 3.9,-3.5 2.2,0 4.9,0.5 6,1 z"
     id="path48"
     sodipodi:nodetypes="ccccccscccccccccccsssc"
     style="fill:#000000;stroke:none;stroke-width:0.1" />
  <path
     d="m 71.5,144.8 v 17.7 h 4 4.1 L 79.5,144.8 V 127 h -4 -4 z"
     id="path50"
     style="fill:#000000;stroke:none;stroke-width:0.1" />
  <path
     d="m 91.1,130.2 c 1.2,4.2 1.2,28.4 0,30.6 -0.8,1.5 -0.3,1.7 3.9,1.7 h 4.7 v -6.3 c 0,-7.2 1.4,-9.7 3.4,-6.1 0.6,1.3 2.6,4 4.4,6 1.8,2 3.4,4.1 3.6,4.6 0.2,0.6 3.2,1.3 6.7,1.6 l 6.2,0.5 -5.6,-6 c -3,-3.4 -6.7,-7.8 -8.1,-10 -3.2,-4.7 -2.7,-6 5.5,-14.2 l 5.6,-5.6 h -4.8 c -4.4,0 -5.2,0.4 -8.7,4.2 -2.2,2.4 -4.7,5.5 -5.6,7 -4.016308,6.95221 -2.850202,-2.23385 -2.7,-4.2 l 0.7,-7 h -5.1 -5.1 z"
     id="path52"
     sodipodi:nodetypes="ccscscscccccscsccccccc"
     style="fill:#000000;stroke:none;stroke-width:0.1" />
  <path
     d="m 129.5,144.9 v 17.6 l 12.3,-0.3 12.2,-0.3 v -3.8 -3.7 l -8.5,0.4 -8.5,0.5 v -3.7 -3.7 l 6.3,0.2 c 3.4,0.1 6.3,-0.1 6.5,-0.4 0.1,-0.4 0.2,-2.1 0.2,-3.7 v -3 h -6.5 -6.5 v -3 -3 h 8.3 8.2 l -0.1,-3.7 -0.1,-3.8 -11.9,-0.1 -11.9,-0.1 z"
     id="path54"
     sodipodi:nodetypes="ccccccccccccscccccccccccc"
     style="fill:#000000;stroke:none;stroke-width:0.1" />
  <path
     d="m 173,144.8 v 17.7 l 4.3,-0.3 4.2,-0.4 -0.5,-6.5 -0.6,-6.5 6.6,0.4 6.5,0.3 -0.4,-3.7 -0.3,-3.8 h -6.3 -6.2 l 0.2,-3.7 0.3,-3.6 8,0.2 8.1,0.2 -0.1,-4 V 127 H 184.9 173 Z"
     id="path56"
     sodipodi:nodetypes="ccccccccccccccccccccc"
     style="fill:#000000;stroke:none;stroke-width:0.1" />
  <path
     d="m 205.5,144.8 v 17.7 h 4.7 4.7 l -0.7,-3 c -0.4,-1.7 -0.7,-9.6 -0.7,-17.8 V 127 h -4 -4 z"
     id="path58"
     style="fill:#000000;stroke:none;stroke-width:0.1" />
  <path
     d="m 222.1,128.2 c 2.4,2 11.9,14.5 11.9,15.7 0,0.5 -2.7,4.9 -6.1,9.7 -3.3,4.7 -5.9,8.7 -5.7,8.8 0.2,0.2 2.3,0.1 4.8,-0.2 3.8,-0.3 4.8,-0.8 5.8,-3 0.7,-1.5 2.2,-3.8 3.3,-5.2 l 2.1,-2.4 1.9,2.4 c 1.1,1.4 2.6,3.8 3.3,5.3 1.2,2.6 1.8,2.9 6.5,3.1 2.8,0.1 5.1,0 5.1,-0.2 0,-0.1 -2.7,-4.3 -6.1,-9.3 l -6,-9 4.6,-6.5 c 2.6,-3.5 5.6,-7.3 6.8,-8.4 l 2.1,-2 h -5.5 -5.5 l -2.9,5 c -1.7,2.7 -3.3,5 -3.6,5 -0.4,0 -2.2,-2.2 -4,-5 -3.4,-4.9 -3.4,-4.9 -8.8,-5 -4.5,0 -5.2,0.2 -4,1.2 z"
     id="path60"
     sodipodi:nodetypes="sscccccccccsccccccccsccs"
     style="fill:#000000;stroke:none;stroke-width:0.1" />
  <path
     d="m 74.7,175 c -5,3.9 -2.9,8.7 4.6,10.4 1.6,0.4 2.7,1.2 2.4,1.9 -0.5,1.7 -4.5,2.1 -6.3,0.6 -1.2,-1 -1.9,-0.9 -3.6,0.8 l -2,2.1 4.5,1.7 c 3.9,1.5 4.9,1.5 7.3,0.3 1.6,-0.7 3.5,-2.5 4.3,-4 1.4,-2.4 1.4,-2.8 -0.2,-4.6 -1,-1 -3.6,-2.4 -5.9,-3.1 -3.7,-1.2 -3.9,-1.4 -2.5,-2.9 1.3,-1.2 2.1,-1.3 4.1,-0.4 2,0.9 2.7,0.7 4.1,-0.8 1.9,-2.1 1.2,-2.7 -4.1,-3.6 -3.1,-0.4 -4.5,-0.1 -6.7,1.6 z"
     id="path62"
     style="fill:#000000;stroke:none;stroke-width:0.1" />
  <path
     d="m 96.5,173.8 c -1.8,0.2 -2,1 -1.9,7.4 0,6.4 0.3,7.3 2.8,9.4 3.3,2.9 8.5,3.1 11.7,0.5 2.1,-1.7 2.4,-2.9 2.8,-10.2 0.3,-7.4 0.2,-8.1 -1.4,-7.6 -0.9,0.4 -2.1,0.7 -2.6,0.7 -0.5,0 -0.9,2.9 -0.9,6.5 0,6.1 -0.1,6.5 -2.6,7.1 -3.6,0.9 -4.8,-0.8 -5.4,-7.9 -0.4,-5.5 -0.7,-6.2 -2.5,-5.9 z"
     id="path64"
     style="fill:#000000;stroke:none;stroke-width:0.1" />
  <path
     d="m 149.8,183.3 -0.3,9.7 h 4.8 c 5.4,0 9.8,-1.9 12.1,-5.2 2.4,-3.3 1.9,-6.3 -1.4,-10.2 -2.7,-3.1 -3.7,-3.5 -9,-3.8 l -5.9,-0.3 z m 12.2,-2.1 c 1.4,2.6 1.3,2.9 -0.5,4.7 -1.1,1.1 -3.1,2.1 -4.4,2.3 -2.3,0.3 -2.4,0 -2.5,-5 -0.1,-5.3 -0.1,-5.3 2.9,-5 2,0.2 3.4,1.2 4.5,3 z"
     id="path66"
     style="fill:#000000;stroke:none;stroke-width:0.1" />
  <path
     d="m 199.5,175.8 c 0.8,1.5 2.3,4 3.4,5.7 1.3,1.9 2.1,4.6 2.1,7.2 0,3.9 0.2,4.3 2.5,4.3 2.2,0 2.5,-0.4 2.5,-3.9 0,-2.8 1,-5.4 3.5,-9.1 1.9,-2.9 3.5,-5.5 3.5,-5.9 0,-0.4 -1.3,-0.6 -3,-0.3 -1.6,0.2 -3,0.8 -3,1.3 0,0.6 -0.8,2.1 -1.7,3.5 l -1.6,2.6 -2.3,-3.8 c -1.5,-2.5 -3.1,-3.8 -4.8,-4 -2.5,-0.3 -2.5,-0.2 -1.1,2.4 z"
     id="path68"
     style="fill:#000000;stroke:none;stroke-width:0.1" />
  <path
     d="m 122,183.5 v 9.5 h 2.6 c 2.6,0 2.6,-0.1 2.2,-5 -0.3,-2.8 -0.2,-5 0.1,-5 0.3,0.1 2.4,2.3 4.5,5 2.5,3.2 4.7,5 6,5 2,0 2.1,-0.5 2.1,-9.5 V 174 h -2.6 c -2.5,0 -2.6,0.1 -2.1,5.5 0.2,3 0.2,5.5 -0.1,5.5 -0.2,0 -2.4,-2.5 -4.7,-5.5 -2.5,-3.2 -5,-5.5 -6.1,-5.5 -1.7,0 -1.9,0.9 -1.9,9.5 z"
     id="path70"
     style="fill:#000000;stroke:none;stroke-width:0.1" />
  <path
     d="m 178.7,182.8 c -2,4.8 -3.7,9.1 -3.7,9.5 0,0.4 1.1,0.7 2.4,0.7 1.5,0 2.6,-0.7 2.9,-2 0.4,-1.6 1.4,-2 4.5,-2 3.1,0 4.1,0.4 4.5,2 0.4,1.4 1.4,2 3.5,2 h 3.1 l -4,-8.4 c -2.1,-4.6 -3.9,-8.9 -3.9,-9.5 0,-0.6 -1.3,-1.1 -2.8,-1.1 -2.5,0 -3.1,0.7 -6.5,8.8 z m 7.7,-0.6 c 0.9,3.4 0.8,3.5 -1.4,3.4 -2.1,-0.1 -2.4,-0.9 -1.4,-3.9 0.7,-2.4 2,-2.1 2.8,0.5 z"
     id="path72"
     style="fill:#000000;stroke:none;stroke-width:0.1" />
  <path
     d="m 46,178.6 c 0,1.8 8.3,15.9 13.2,22.5 13.5,18.3 28.6,30 47.9,37 23.4,8.5 45.9,8.9 69.2,1.2 23.6,-7.8 42.4,-23.4 57.3,-47.5 5.1,-8.3 5.7,-11.8 2,-11.8 -3,0 -2.25401,0.85057 -4.92046,6.62267 -2.44815,3.80128 -2.78323,4.91231 -6.17954,10.07733 -8.9,13.4 -26.5,27.8 -41.7,34.1 -14.7,6.1 -22.8,7.7 -39.3,7.6 -13,0 -16.3,-0.4 -24.8,-2.7 -26.6,-7.3 -47,-23 -60.8,-46.9 -5.3,-9.3 -6.7,-10.8 -9.6,-10.8 -1.2,0 -2.3,0.3 -2.3,0.6 z"
     id="path74"
     sodipodi:nodetypes="sccccsccccccss"
     style="fill:#000000;stroke:none;stroke-width:0.1" />
  <path
     d="m 121.6,210.7 c -0.3,0.4 -0.6,4.2 -0.6,8.6 0,6.8 0.2,7.8 1.6,7.3 0.9,-0.3 3.6,-0.6 6,-0.6 3.7,0 4.4,-0.3 4.4,-2 0,-1.6 -0.7,-2 -3.4,-2 -3.4,0 -3.5,0 -4.1,-5.4 -0.6,-4.9 -2.3,-7.5 -3.9,-5.9 z"
     id="path76"
     style="fill:#000000;stroke:none;stroke-width:0.1" />
  <path
     d="m 139.7,211.8 c -3.1,3.4 -1.8,7.5 2.7,8.3 1.1,0.2 2.1,1 2.4,1.7 0.3,1 -0.5,1.3 -2.8,1 -4.2,-0.4 -5.1,1.8 -1.4,3.2 2.3,0.9 3.3,0.8 5.3,-0.8 4.1,-3 3.9,-6 -0.3,-7.7 -4.4,-1.9 -4.7,-3.5 -0.6,-3.5 3.2,0 4.2,-2.3 1.4,-3.4 -2.8,-1.1 -5,-0.6 -6.7,1.2 z"
     id="path78"
     style="fill:#000000;stroke:none;stroke-width:0.1" />
  <path
     d="m 154,212 c 0,1.7 0.7,2 4,2 2.2,0 4,0.3 4,0.6 0,0.4 -1.3,2.9 -3,5.6 -3.6,5.8 -3.6,6 -0.8,5.6 1.5,-0.2 3.1,-2.2 5.4,-6.8 1.8,-3.6 3.3,-7 3.4,-7.6 0,-0.7 -2.5,-1.1 -6.5,-1.2 -5.8,-0.1 -6.5,0.1 -6.5,1.8 z"
     id="path80"
     style="fill:#000000;stroke:none;stroke-width:0.1" />
  <path
     d="m 107.5,217 c -1.1,1.7 1.8,4.2 3.9,3.4 0.9,-0.4 1.6,-1.4 1.4,-2.3 -0.4,-1.9 -4.3,-2.7 -5.3,-1.1 z"
     id="path82"
     style="fill:#000000;stroke:none;stroke-width:0.1" />
  <path
     d="m 176.2,218.7 c 0.2,1 1.2,1.8 2.3,1.8 1.1,0 2.1,-0.8 2.3,-1.8 0.3,-1.3 -0.3,-1.7 -2.3,-1.7 -2,0 -2.6,0.4 -2.3,1.7 z"
     id="path84"
     style="fill:#000000;stroke:none;stroke-width:0.1" />
</svg>
